<svg width="256" height="256" viewBox="0 0 256 256" fill="none" xmlns="http://www.w3.org/2000/svg">
<rect width="256" height="256" rx="48" fill="#FF3366"/>
<path d="M28 78.6686V90.5732H52.0594V78.6686H28Z" fill="white" stroke="white" stroke-width="0.00512"/>
<path d="M28 165.422V177.327H52.0594V165.422H28Z" fill="white" stroke="white" stroke-width="0.00512"/>
<path d="M67.9326 193.204V217.264H79.8372V193.204H67.9326Z" fill="white" stroke="white" stroke-width="0.00512"/>
<path d="M67.9326 38.7361V62.7955H79.8372V38.7361H67.9326Z" fill="white" stroke="white" stroke-width="0.00512"/>
<path d="M176.163 193.204V217.264H188.067V193.204H176.163Z" fill="white" stroke="white" stroke-width="0.00512"/>
<path d="M176.163 38.7361V62.7955H188.067V38.7361H176.163Z" fill="white" stroke="white" stroke-width="0.00512"/>
<path d="M203.941 78.6686V90.5732H228V78.6686H203.941Z" fill="white" stroke="white" stroke-width="0.00512"/>
<path d="M203.941 165.422V177.327H228V165.422H203.941Z" fill="white" stroke="white" stroke-width="0.00512"/>
<path d="M63.9644 74.6963L63.9644 181.296H192.036V74.6963L63.9644 74.6963Z" fill="white" stroke="white" stroke-width="0.00512"/>
</svg>
