<svg width="904" height="158" viewBox="0 0 904 158" fill="none" xmlns="http://www.w3.org/2000/svg">
<path d="M0.00274658 35.2969L0.00274658 45.8188H21.2676V35.2969H0.00274658Z" fill="#FF3366" stroke="white" stroke-width="0.00551348"/>
<path d="M0.00274658 111.974L0.00274658 122.496H21.2676V111.974H0.00274658Z" fill="#FF3366" stroke="white" stroke-width="0.00551348"/>
<path d="M35.2971 136.529V157.794H45.819V136.529H35.2971Z" fill="#FF3366" stroke="white" stroke-width="0.00551348"/>
<path d="M35.2971 0.00276566V21.2676H45.819V0.00276566H35.2971Z" fill="#FF3366" stroke="white" stroke-width="0.00551348"/>
<path d="M130.956 136.529V157.794H141.478V136.529H130.956Z" fill="#FF3366" stroke="white" stroke-width="0.00551348"/>
<path d="M130.956 0.00276566V21.2676H141.478V0.00276566H130.956Z" fill="#FF3366" stroke="white" stroke-width="0.00551348"/>
<path d="M155.507 35.2969V45.8188H176.772V35.2969H155.507Z" fill="#FF3366" stroke="white" stroke-width="0.00551348"/>
<path d="M155.507 111.974V122.496H176.772V111.974H155.507Z" fill="#FF3366" stroke="white" stroke-width="0.00551348"/>
<path d="M31.7897 31.786L31.7897 126.003H144.985V31.786H31.7897Z" fill="#FF3366" stroke="white" stroke-width="0.00551348"/>
<path d="M867.81 128.21C857.57 128.21 849.058 124.84 842.274 118.098C835.49 111.314 832.098 102.973 832.098 93.0743C832.098 83.2183 835.49 74.9196 842.274 68.1783C849.101 61.3943 857.613 58.0023 867.81 58.0023C878.05 58.0023 886.584 61.3943 893.41 68.1783C900.237 74.9196 903.65 83.2183 903.65 93.0743C903.65 102.973 900.237 111.314 893.41 118.098C886.584 124.84 878.05 128.21 867.81 128.21ZM867.874 109.522C872.312 109.522 876.109 107.965 879.266 104.85C882.424 101.693 884.002 97.7676 884.002 93.0743C884.002 88.3809 882.402 84.4769 879.202 81.3623C876.045 78.2476 872.269 76.6903 867.874 76.6903C863.394 76.6903 859.576 78.2476 856.418 81.3623C853.304 84.4769 851.746 88.3809 851.746 93.0743C851.746 97.7676 853.304 101.693 856.418 104.85C859.576 107.965 863.394 109.522 867.874 109.522Z" fill="black"/>
<path d="M801.416 126.738V59.4102H822.024V126.738H801.416ZM811.784 53.2022C808.456 53.2022 805.619 52.0289 803.272 49.6822C800.968 47.3356 799.816 44.5409 799.816 41.2982C799.816 37.9276 800.99 35.1329 803.336 32.9142C805.683 30.6956 808.499 29.5862 811.784 29.5862C815.24 29.5862 818.099 30.6956 820.36 32.9142C822.622 35.1329 823.752 37.9276 823.752 41.2982C823.752 44.5836 822.622 47.3996 820.36 49.7462C818.099 52.0502 815.24 53.2022 811.784 53.2022Z" fill="black"/>
<path d="M745.086 128.21C736.084 128.21 728.574 124.989 722.558 118.546C716.585 112.061 713.598 103.741 713.598 93.5863C713.598 83.2609 716.649 74.7489 722.75 68.0503C728.894 61.3516 736.617 58.0023 745.918 58.0023C750.057 58.0023 754.004 58.8129 757.758 60.4343C761.513 62.0556 764.5 64.3809 766.718 67.4103L766.334 67.0263V35.0903H786.942V126.738H767.678V115.026L769.278 116.626L768.062 117.33C765.844 120.744 762.729 123.41 758.718 125.33C754.708 127.25 750.164 128.21 745.086 128.21ZM750.27 110.802C755.134 110.802 759.124 109.138 762.238 105.81C765.396 102.482 766.974 98.3436 766.974 93.3943C766.974 88.2743 765.374 84.0929 762.174 80.8503C758.974 77.6076 755.006 75.9863 750.27 75.9863C745.364 75.9863 741.289 77.5863 738.046 80.7863C734.846 83.9863 733.246 88.1889 733.246 93.3943C733.246 98.6423 734.868 102.866 738.11 106.066C741.353 109.224 745.406 110.802 750.27 110.802Z" fill="black"/>
<path d="M663.603 128.21C656.35 128.21 650.633 126.077 646.451 121.81C642.27 117.501 640.179 111.57 640.179 104.018V59.4103H660.787V98.5143C660.787 102.397 661.683 105.405 663.475 107.538C665.267 109.629 667.934 110.674 671.475 110.674C675.315 110.674 678.366 109.33 680.627 106.642C682.931 103.954 684.083 100.648 684.083 96.7223V59.4103H704.755V126.738H684.787V106.898L695.219 117.33H684.723C682.59 120.786 679.753 123.474 676.211 125.394C672.713 127.272 668.51 128.21 663.603 128.21Z" fill="black"/>
<path d="M617.889 128.21C611.447 128.21 606.327 126.461 602.529 122.962C598.732 119.464 596.833 114.088 596.833 106.834V43.0263H617.441V104.402C617.441 107.09 617.996 108.989 619.105 110.098C620.257 111.165 621.879 111.698 623.969 111.698C625.079 111.698 626.103 111.613 627.041 111.442C628.023 111.272 629.089 110.994 630.241 110.61C631.393 110.226 631.969 110.034 631.969 110.034V125.394C631.969 125.394 631.137 125.693 629.473 126.29C627.852 126.845 626.06 127.293 624.097 127.634C622.135 128.018 620.065 128.21 617.889 128.21ZM587.617 76.3063V59.4103H631.841V76.3063H587.617Z" fill="black"/>
<path d="M548.693 128.21C542.037 128.21 536.299 127.421 531.477 125.842C526.656 124.264 522.603 121.981 519.317 118.994C516.032 115.965 513.557 112.68 511.893 109.138C510.229 105.597 509.397 103.826 509.397 103.826L528.533 96.9783C528.533 96.9783 529.024 98.0236 530.005 100.114C530.987 102.205 532.352 104.04 534.101 105.618C535.893 107.197 538.027 108.477 540.501 109.458C542.976 110.397 545.792 110.866 548.949 110.866C553.045 110.866 556.267 109.97 558.613 108.178C560.96 106.386 562.133 103.869 562.133 100.626C562.133 97.3836 560.768 94.909 558.037 93.2023C555.349 91.453 549.909 89.469 541.717 87.2503C531.349 84.3916 524.053 80.7223 519.829 76.2423C515.648 71.7623 513.557 66.3436 513.557 59.9863C513.557 52.221 516.672 45.885 522.901 40.9783C529.131 36.0716 537.429 33.6183 547.797 33.6183C553.6 33.6183 558.549 34.2796 562.645 35.6023C566.784 36.8823 570.411 38.8876 573.525 41.6183C576.683 44.3063 579.072 47.1223 580.693 50.0663C582.315 53.0103 583.125 54.4823 583.125 54.4823L564.757 61.3943C564.757 61.3943 564.224 60.541 563.157 58.8343C562.133 57.1276 560.896 55.6343 559.445 54.3543C557.995 53.0743 556.373 52.1356 554.581 51.5383C552.789 50.941 550.677 50.6423 548.245 50.6423C544.576 50.6423 541.589 51.389 539.285 52.8823C536.981 54.333 535.829 56.381 535.829 59.0263C535.829 61.4156 537.067 63.4423 539.541 65.1063C542.059 66.7703 547.797 68.861 556.757 71.3783C566.955 74.237 574.144 77.9916 578.325 82.6423C582.507 87.2503 584.597 93.0103 584.597 99.9223C584.597 108.669 581.269 115.581 574.613 120.658C567.957 125.693 559.317 128.21 548.693 128.21Z" fill="black"/>
<path d="M431.287 128.21C417.933 128.168 406.69 123.688 397.559 114.77C388.471 105.853 383.927 94.6103 383.927 81.0423C383.927 67.133 388.45 55.7623 397.495 46.9303C406.541 38.0556 417.869 33.6183 431.479 33.6183C436.813 33.6183 441.442 34.1516 445.367 35.2183C449.335 36.2423 452.898 37.629 456.055 39.3783C459.255 41.1276 461.943 43.0689 464.119 45.2023C466.295 47.3356 467.383 48.4023 467.383 48.4023L453.431 64.1463C453.431 64.1463 452.663 63.3996 451.127 61.9063C449.591 60.413 447.906 59.1329 446.071 58.0663C444.237 56.9996 442.146 56.1463 439.799 55.5063C437.453 54.8236 434.743 54.4823 431.671 54.4823C424.418 54.4823 418.295 56.957 413.303 61.9063C408.311 66.813 405.815 73.4263 405.815 81.7463C405.815 89.469 408.269 95.8263 413.175 100.818C418.082 105.768 424.439 108.242 432.247 108.242C440.013 108.242 445.815 106.408 449.655 102.738C453.538 99.0263 455.778 94.589 456.375 89.4263V90.5143H430.391V74.6423H477.495V82.3863C477.495 96.4236 473.207 107.581 464.631 115.858C456.055 124.093 444.941 128.21 431.287 128.21Z" fill="black"/>
<path d="M331.867 126.738L298.587 35.0903H321.371L341.787 92.6903L343.259 96.9143H343.323L344.603 92.6903L364.635 35.0903H386.843L352.667 126.738H331.867Z" fill="black"/>
<path d="M264.068 128.21C257.412 128.21 251.674 127.421 246.852 125.842C242.031 124.264 237.978 121.981 234.692 118.994C231.407 115.965 228.932 112.68 227.268 109.138C225.604 105.597 224.772 103.826 224.772 103.826L243.908 96.9783C243.908 96.9783 244.399 98.0236 245.38 100.114C246.362 102.205 247.727 104.04 249.476 105.618C251.268 107.197 253.402 108.477 255.876 109.458C258.351 110.397 261.167 110.866 264.324 110.866C268.42 110.866 271.642 109.97 273.988 108.178C276.335 106.386 277.508 103.869 277.508 100.626C277.508 97.3836 276.143 94.909 273.412 93.2023C270.724 91.453 265.284 89.469 257.092 87.2503C246.724 84.3916 239.428 80.7223 235.204 76.2423C231.023 71.7623 228.932 66.3436 228.932 59.9863C228.932 52.221 232.047 45.885 238.276 40.9783C244.506 36.0716 252.804 33.6183 263.172 33.6183C268.975 33.6183 273.924 34.2796 278.02 35.6023C282.159 36.8823 285.786 38.8876 288.9 41.6183C292.058 44.3063 294.447 47.1223 296.068 50.0663C297.69 53.0103 298.5 54.4823 298.5 54.4823L280.132 61.3943C280.132 61.3943 279.599 60.541 278.532 58.8343C277.508 57.1276 276.271 55.6343 274.82 54.3543C273.37 53.0743 271.748 52.1356 269.956 51.5383C268.164 50.941 266.052 50.6423 263.62 50.6423C259.951 50.6423 256.964 51.389 254.66 52.8823C252.356 54.333 251.204 56.381 251.204 59.0263C251.204 61.4156 252.442 63.4423 254.916 65.1063C257.434 66.7703 263.172 68.861 272.132 71.3783C282.33 74.237 289.519 77.9916 293.7 82.6423C297.882 87.2503 299.972 93.0103 299.972 99.9223C299.972 108.669 296.644 115.581 289.988 120.658C283.332 125.693 274.692 128.21 264.068 128.21Z" fill="black"/>
</svg>
